<mxfile host="app.diagrams.net" modified="2022-08-23T16:21:50.183Z" agent="5.0 (Macintosh; Intel Mac OS X 10_15_7) AppleWebKit/537.36 (KHTML, like Gecko) Chrome/104.0.0.0 Safari/537.36" etag="gHay8zl0-mHpW4YPN08g" version="20.2.6" type="github">
  <diagram id="ZgmYUymcjxueGLz5kTBJ" name="第 1 页">
    <mxGraphModel dx="1306" dy="776" grid="1" gridSize="10" guides="1" tooltips="1" connect="1" arrows="1" fold="1" page="1" pageScale="1" pageWidth="827" pageHeight="1169" math="0" shadow="0">
      <root>
        <mxCell id="0" />
        <mxCell id="1" parent="0" />
        <mxCell id="Dbexr6uCwejTZ2FRTLkI-1" value="" style="rounded=0;whiteSpace=wrap;html=1;" parent="1" vertex="1">
          <mxGeometry x="310" y="320" width="240" height="130" as="geometry" />
        </mxCell>
        <mxCell id="Dbexr6uCwejTZ2FRTLkI-22" style="edgeStyle=orthogonalEdgeStyle;rounded=0;orthogonalLoop=1;jettySize=auto;html=1;exitX=0;exitY=0;exitDx=0;exitDy=0;" parent="1" source="Dbexr6uCwejTZ2FRTLkI-15" edge="1">
          <mxGeometry relative="1" as="geometry">
            <mxPoint x="310" y="300" as="targetPoint" />
          </mxGeometry>
        </mxCell>
        <mxCell id="Dbexr6uCwejTZ2FRTLkI-26" style="edgeStyle=orthogonalEdgeStyle;rounded=0;orthogonalLoop=1;jettySize=auto;html=1;exitX=1;exitY=0;exitDx=0;exitDy=0;" parent="1" source="Dbexr6uCwejTZ2FRTLkI-15" edge="1">
          <mxGeometry relative="1" as="geometry">
            <mxPoint x="429.8571428571428" y="300" as="targetPoint" />
          </mxGeometry>
        </mxCell>
        <mxCell id="Dbexr6uCwejTZ2FRTLkI-15" value="源端口号" style="rounded=0;whiteSpace=wrap;html=1;" parent="1" vertex="1">
          <mxGeometry x="310" y="320" width="120" height="30" as="geometry" />
        </mxCell>
        <mxCell id="Dbexr6uCwejTZ2FRTLkI-23" style="edgeStyle=orthogonalEdgeStyle;rounded=0;orthogonalLoop=1;jettySize=auto;html=1;exitX=1;exitY=0;exitDx=0;exitDy=0;" parent="1" source="Dbexr6uCwejTZ2FRTLkI-16" edge="1">
          <mxGeometry relative="1" as="geometry">
            <mxPoint x="550" y="300" as="targetPoint" />
          </mxGeometry>
        </mxCell>
        <mxCell id="Dbexr6uCwejTZ2FRTLkI-16" value="目的端口号" style="rounded=0;whiteSpace=wrap;html=1;" parent="1" vertex="1">
          <mxGeometry x="430" y="320" width="120" height="30" as="geometry" />
        </mxCell>
        <mxCell id="Dbexr6uCwejTZ2FRTLkI-17" value="报文总长度" style="rounded=0;whiteSpace=wrap;html=1;" parent="1" vertex="1">
          <mxGeometry x="310" y="350" width="120" height="30" as="geometry" />
        </mxCell>
        <mxCell id="Dbexr6uCwejTZ2FRTLkI-18" value="校验和" style="rounded=0;whiteSpace=wrap;html=1;" parent="1" vertex="1">
          <mxGeometry x="430" y="350" width="120" height="30" as="geometry" />
        </mxCell>
        <mxCell id="Dbexr6uCwejTZ2FRTLkI-20" value="应用数据" style="text;html=1;strokeColor=none;fillColor=none;align=center;verticalAlign=middle;whiteSpace=wrap;rounded=0;" parent="1" vertex="1">
          <mxGeometry x="400" y="400" width="60" height="30" as="geometry" />
        </mxCell>
        <mxCell id="Dbexr6uCwejTZ2FRTLkI-24" value="0" style="text;html=1;align=center;verticalAlign=middle;resizable=0;points=[];autosize=1;strokeColor=none;fillColor=none;" parent="1" vertex="1">
          <mxGeometry x="295" y="275" width="30" height="30" as="geometry" />
        </mxCell>
        <mxCell id="Dbexr6uCwejTZ2FRTLkI-25" value="31" style="text;html=1;align=center;verticalAlign=middle;resizable=0;points=[];autosize=1;strokeColor=none;fillColor=none;" parent="1" vertex="1">
          <mxGeometry x="530" y="275" width="40" height="30" as="geometry" />
        </mxCell>
        <mxCell id="Dbexr6uCwejTZ2FRTLkI-27" value="16" style="text;html=1;align=center;verticalAlign=middle;resizable=0;points=[];autosize=1;strokeColor=none;fillColor=none;" parent="1" vertex="1">
          <mxGeometry x="410" y="275" width="40" height="30" as="geometry" />
        </mxCell>
      </root>
    </mxGraphModel>
  </diagram>
</mxfile>
